<svg xmlns="http://www.w3.org/2000/svg" width="24" height="24" viewBox="0 0 24 24"><path style="fill:white;" d="M11.999,2c-5.521,0 -9.999,4.59 -9.999,10.254c0,4.529 2.865,8.373 6.839,9.728c0.5,0.094 0.682,-0.222 0.682,-0.494c0,-0.243 -0.008,-0.888 -0.013,-1.744c-2.782,0.62 -3.369,-1.374 -3.369,-1.374c-0.454,-1.184 -1.11,-1.5 -1.11,-1.5c-0.908,-0.636 0.069,-0.623 0.069,-0.623c1.003,0.072 1.531,1.056 1.531,1.056c0.892,1.568 2.341,1.115 2.911,0.853c0.091,-0.663 0.349,-1.115 0.635,-1.371c-2.221,-0.259 -4.555,-1.139 -4.555,-5.068c0,-1.119 0.389,-2.034 1.029,-2.751c-0.103,-0.259 -0.446,-1.302 0.098,-2.714c0,0 0.839,-0.275 2.75,1.052c0.797,-0.228 1.653,-0.342 2.503,-0.345c0.85,0.003 1.705,0.117 2.504,0.345c1.909,-1.327 2.747,-1.052 2.747,-1.052c0.546,1.412 0.203,2.455 0.1,2.714c0.641,0.717 1.028,1.632 1.028,2.751c0,3.939 -2.339,4.806 -4.566,5.059c0.359,0.317 0.678,0.943 0.678,1.899c0,1.371 -0.012,2.477 -0.012,2.813c0,0.274 0.181,0.593 0.688,0.493c3.97,-1.358 6.833,-5.199 6.833,-9.727c0,-5.664 -4.478,-10.254 -10.001,-10.254Z"/></svg>